Coordinates
version=1
nRows=22
nColumns=24
inDegrees=yes

Units are S.I. units (second, meters, Newtons, ...)
Angles are in degrees.

endheader
time	pelvis_tilt	pelvis_list	pelvis_rotation	pelvis_tx	pelvis_ty	pelvis_tz	hip_flexion_r	hip_adduction_r	hip_rotation_r	knee_angle_r	ankle_angle_r	subtalar_angle_r	mtp_angle_r	hip_flexion_l	hip_adduction_l	hip_rotation_l	knee_angle_l	ankle_angle_l	subtalar_angle_l	mtp_angle_l	lumbar_extension	lumbar_bending	lumbar_rotation
      1.40700000	     -2.74908400	      1.13648036	     -6.38952985	      0.93155326	      0.95664021	      0.33470929	    -20.93656523	     -2.01790566	      0.74094660	     -4.91994790	     18.70215288	      9.70371237	      1.45460427	     28.35204393	     -1.11042127	     -2.00451751	      4.54695863	      1.18194281	     -6.75104626	      1.76232677	    -10.40047095	      3.30609232	     10.46687525
      1.41116667	     -2.78824139	      1.34368105	     -6.37513982	      0.93777123	      0.95598413	      0.33410520	    -21.10864825	     -2.29446416	      0.62493236	     -5.18695232	     18.40192042	      9.65734085	      1.65578135	     28.51815683	     -0.81430053	     -1.78640120	      3.79140145	      0.97693642	     -7.00511162	      1.79435476	    -10.29975410	      2.99628189	     10.46371897
      1.41533333	     -2.82255898	      1.52202011	     -6.36059454	      0.94400008	      0.95535325	      0.33344690	    -21.25654980	     -2.54683488	      0.45062738	     -5.51911283	     18.12721778	      9.72959510	      2.23154300	     28.63399786	     -0.53303652	     -1.37186004	      3.13711017	      0.39329904	     -7.85033377	      1.89977747	    -10.19161382	      2.75922975	     10.49138099
      1.41950000	     -2.84471771	      1.75032991	     -6.34556933	      0.95030694	      0.95478136	      0.33281523	    -21.43029874	     -2.84598739	      0.31064399	     -5.80403258	     17.63541926	      9.52815577	      9.73720564	     28.75992157	     -0.20477588	     -1.12396700	      2.42385600	     -0.10500310	     -8.36816950	      3.44592640	    -10.10705564	      2.44204438	     10.45320819
      1.42366667	     -2.90877498	      1.97656282	     -6.33025587	      0.95663655	      0.95418379	      0.33214279	    -21.52994586	     -3.14303338	      0.13979853	     -6.16229337	     17.28616995	      9.57195879	      9.81365965	     28.92565517	      0.12343742	     -0.82760782	      1.71529893	     -0.69540993	     -9.05064352	      3.42684742	     -9.96289650	      2.13367493	     10.51605518
      1.42783333	     -2.96986968	      2.22256826	     -6.31282544	      0.96301589	      0.95363626	      0.33146880	    -21.63174906	     -3.45727156	     -0.01902329	     -6.51998980	     16.91150842	      9.56520803	      9.94327155	     29.08376993	      0.47393681	     -0.57431066	      1.01369830	     -1.37434298	     -9.72438841	      3.42104764	     -9.80555972	      1.79726840	     10.52337453
      1.43200000	     -3.03918274	      2.47885399	     -6.30126636	      0.96941718	      0.95311209	      0.33079283	    -21.69898940	     -3.78294863	     -0.18119517	     -6.92584555	     16.51262966	      9.53693718	     10.14138447	     29.24712560	      0.83201932	     -0.32638625	      0.32902813	     -2.14397017	    -10.46460861	      3.44027434	     -9.64729397	      1.45123242	     10.54827701
      1.43616667	     -3.11013391	      2.75087515	     -6.28810224	      0.97584808	      0.95262619	      0.33009748	    -21.74850454	     -4.12462733	     -0.35278822	     -7.35998771	     16.08382870	      9.50321091	     10.42045579	     29.41571766	      1.20767869	     -0.10340814	     -0.36709350	     -2.95379632	    -11.22627901	      3.47925529	     -9.48645279	      1.08741617	     10.57602828
      1.44033333	     -3.18788791	      3.03386166	     -6.27564582	      0.98231372	      0.95217392	      0.32939730	    -21.77613976	     -4.47652610	     -0.52219597	     -7.81968121	     15.62246428	      9.45018493	     10.78127399	     29.59895926	      1.59171954	      0.07309771	     -1.07711465	     -3.80236917	    -11.95710937	      3.53485460	     -9.30973859	      0.71031778	     10.60367336
      1.44450000	     -3.23929155	      3.35226402	     -6.24060859	      0.98883446	      0.95178344	      0.32866408	    -21.82484020	     -4.85956814	     -0.75206314	     -8.28466559	     15.06163673	      9.27863380	     16.52373137	     29.76454639	      2.02165681	      0.20312992	     -1.80761477	     -4.64132830	    -12.60784562	      4.57621157	     -9.16391371	      0.29277224	     10.54892975
      1.44866667	     -3.35330146	      3.63871069	     -6.24789005	      0.99533137	      0.95139248	      0.32798861	    -21.77970809	     -5.21580892	     -0.85581019	     -8.79073041	     14.50035668	      9.19117949	     16.60413638	     30.01015335	      2.38832014	      0.23313082	     -2.57669633	     -5.47691221	    -13.23622813	      4.55176752	     -8.94072387	     -0.09375736	     10.67179932
      1.45283333	     -3.44492368	      3.94674764	     -6.23493575	      1.00183492	      0.95105607	      0.32727298	    -21.73571494	     -5.58979314	     -1.00533739	     -9.34489542	     13.94890271	      9.08490005	     16.76273531	     30.23247534	      2.78788989	      0.28732131	     -3.33982732	     -6.34502697	    -13.88053343	      4.54029611	     -8.74766233	     -0.49791052	     10.70418922
      1.45700000	     -3.53350345	      4.27708672	     -6.21613708	      1.00841509	      0.95077070	      0.32654805	    -21.68366512	     -5.98521198	     -1.17628130	     -9.92064320	     13.35345718	      8.97039235	     17.00813292	     30.45254790	      3.20934469	      0.29832492	     -4.12209561	     -7.15201056	    -14.47379377	      4.53229484	     -8.54621077	     -0.93205848	     10.74939925
      1.46116667	     -3.62547425	      4.60921878	     -6.21054781	      1.01497536	      0.95052188	      0.32582485	    -21.59695821	     -6.38802605	     -1.32102487	    -10.54476663	     12.72224209	      8.84015207	     17.41179975	     30.68736895	      3.62417549	      0.30046349	     -4.93181517	     -7.90987927	    -15.08357696	      4.53348649	     -8.34998195	     -1.37010253	     10.81982992
      1.46533333	     -3.68554023	      4.94864927	     -6.16710395	      1.02158402	      0.95035547	      0.32509578	    -21.56574870	     -6.78042263	     -1.47559266	    -11.12826942	     12.00557053	      8.65193346	     17.55666574	     30.92674988	      4.05163180	      0.15934854	     -5.83463389	     -8.46471566	    -15.32303481	      4.52532580	     -8.18169909	     -1.82617795	     10.78663370
      1.46950000	     -3.79719182	      5.26411727	     -6.17434866	      1.02811692	      0.95016747	      0.32435444	    -21.38602795	     -7.17163779	     -1.58834501	    -11.87934600	     11.36864322	      8.48072463	     18.11366743	     31.19483987	      4.44011312	      0.14505246	     -6.68517321	     -9.22202513	    -15.99511044	      4.51141550	     -7.95777503	     -2.23404052	     10.95706223
      1.47366667	     -3.82280977	      5.61233873	     -6.12862249	      1.03474603	      0.95012355	      0.32358977	    -21.34309951	     -7.58240142	     -1.78242922	    -12.53117832	     10.49220926	      8.21661389	     25.63767673	     31.39577170	      4.88279069	      0.03248100	     -7.61087750	     -9.66128477	    -16.30571320	      4.35369796	     -7.82145601	     -2.69042662	     10.90651998
      1.47783333	     -3.86112955	      5.95009153	     -6.10629874	      1.04134393	      0.95011309	      0.32285615	    -21.24861349	     -7.98516277	     -1.89605313	    -13.25615104	      9.70023080	      7.99445370	     25.65693715	     31.62436453	      5.29572256	     -0.12847256	     -8.57481844	    -10.02497006	    -16.53075094	      4.33962553	     -7.68406950	     -3.14006563	     10.92252042
      1.48200000	     -3.93840333	      6.26621781	     -6.08378331	      1.04792176	      0.95008686	      0.32209350	    -21.06529821	     -8.36637110	     -1.99633398	    -14.07211298	      8.91665683	      7.75507804	     25.77851113	     31.88988447	      5.68853518	     -0.22496982	     -9.54436895	    -10.41221788	    -16.87571838	      4.30300248	     -7.49438410	     -3.56036836	     11.05243749
      1.48616667	     -3.97656299	      6.59067860	     -6.06669438	      1.05450951	      0.95014351	      0.32132994	    -20.90685017	     -8.76365890	     -2.09797412	    -14.90484654	      8.08726314	      7.53067948	     25.98380752	     32.11896344	      6.09026402	     -0.33752601	    -10.54034603	    -10.65210712	    -17.13025339	      4.24131012	     -7.35429851	     -3.98897541	     11.15105282
      1.49033333	     -3.95649167	      6.92139782	     -6.05274604	      1.06110477	      0.95032109	      0.32056953	    -20.79976682	     -9.17368236	     -2.20248024	    -15.73791404	      7.16071994	      7.26019219	     29.90686484	     32.27106341	      6.50781387	     -0.43469034	    -11.51574110	    -10.77917091	    -17.39560117	      3.09564720	     -7.28461094	     -4.44472869	     11.27481650
      1.49450000	     -3.93294887	      7.22152843	     -6.00744651	      1.06766390	      0.95050617	      0.31975798	    -20.66793440	     -9.54273118	     -2.32891134	    -16.64448898	      6.28356010	      7.03172684	     29.91776938	     32.44381606	      6.91228737	     -0.50704760	    -12.56386851	    -10.78781666	    -17.58758537	      3.09114642	     -7.20730159	     -4.82632371	     11.22764669
